<?xml version="1.0" encoding="iso-8859-1"?>
<!-- Uploaded to: SVG Repo, www.svgrepo.com, Generator: SVG Repo Mixer Tools -->
<svg height="800px" width="800px" version="1.1" id="Layer_1" xmlns="http://www.w3.org/2000/svg" xmlns:xlink="http://www.w3.org/1999/xlink" 
	 viewBox="0 0 512 512" xml:space="preserve">
<polygon style="fill:#A0F6FA;" points="455.736,0 455.736,444.484 399.473,466.989 421.978,0 "/>
<polygon style="fill:#D0FBFD;" points="56.264,0 56.264,512 388.22,512 421.978,455.736 421.978,0 "/>
<polygon style="fill:#50D1DD;" points="388.22,444.484 388.22,512 455.736,444.484 "/>
<g>
	<path style="fill:#25BBCC;" d="M213.802,452.923h-56.264c-4.662,0-8.44-3.779-8.44-8.44c0-4.661,3.778-8.44,8.44-8.44h56.264
		c4.662,0,8.44,3.779,8.44,8.44C222.242,449.144,218.464,452.923,213.802,452.923z"/>
	<path style="fill:#25BBCC;" d="M213.802,419.165h-56.264c-4.662,0-8.44-3.779-8.44-8.44c0-4.661,3.778-8.44,8.44-8.44h56.264
		c4.662,0,8.44,3.779,8.44,8.44C222.242,415.386,218.464,419.165,213.802,419.165z"/>
	<path style="fill:#25BBCC;" d="M303.824,385.407H157.538c-4.662,0-8.44-3.779-8.44-8.44s3.778-8.44,8.44-8.44h146.286
		c4.662,0,8.44,3.779,8.44,8.44S308.486,385.407,303.824,385.407z"/>
	<path style="fill:#25BBCC;" d="M379.78,351.648H191.297c-4.662,0-8.44-3.779-8.44-8.44s3.778-8.44,8.44-8.44H379.78
		c4.662,0,8.44,3.779,8.44,8.44S384.442,351.648,379.78,351.648z"/>
	<path style="fill:#25BBCC;" d="M379.78,317.89H225.055c-4.662,0-8.44-3.779-8.44-8.44s3.778-8.44,8.44-8.44H379.78
		c4.662,0,8.44,3.779,8.44,8.44S384.442,317.89,379.78,317.89z"/>
	<path style="fill:#25BBCC;" d="M379.78,284.132H258.813c-4.662,0-8.44-3.779-8.44-8.44s3.778-8.44,8.44-8.44H379.78
		c4.662,0,8.44,3.779,8.44,8.44S384.442,284.132,379.78,284.132z"/>
	<path style="fill:#25BBCC;" d="M225.055,284.132h-33.758c-4.662,0-8.44-3.779-8.44-8.44s3.778-8.44,8.44-8.44h33.758
		c4.662,0,8.44,3.779,8.44,8.44S229.717,284.132,225.055,284.132z"/>
	<path style="fill:#25BBCC;" d="M303.824,250.374H157.538c-4.662,0-8.44-3.779-8.44-8.44s3.778-8.44,8.44-8.44h146.286
		c4.662,0,8.44,3.779,8.44,8.44S308.486,250.374,303.824,250.374z"/>
	<circle style="fill:#25BBCC;" cx="180.044" cy="129.969" r="8.44"/>
	<circle style="fill:#25BBCC;" cx="213.802" cy="129.969" r="8.44"/>
	<circle style="fill:#25BBCC;" cx="247.56" cy="129.969" r="8.44"/>
</g>
<g>
	<path style="fill:#78E3EC;" d="M146.591,200.862c-13.96,0-25.319-11.357-25.319-25.319l0.141-32.669
		c0-2.452-1.112-4.811-3.051-6.433c-1.915-1.604-3.022-3.973-3.022-6.471c0-2.498,1.106-4.868,3.024-6.471
		c1.938-1.622,3.049-3.98,3.049-6.469V84.396c0-13.961,11.359-25.319,25.319-25.319c4.662,0,8.44,3.779,8.44,8.44
		s-3.778,8.44-8.44,8.44c-4.654,0-8.44,3.785-8.44,8.44v32.633c0,4.616-1.255,9.07-3.568,12.941
		c2.314,3.871,3.568,8.326,3.568,12.941l-0.141,32.669c0,4.618,3.785,8.404,8.44,8.404c4.662,0,8.44,3.779,8.44,8.44
		S151.253,200.862,146.591,200.862z"/>
	<path style="fill:#78E3EC;" d="M281.014,200.862c-4.662,0-8.44-3.779-8.44-8.44s3.778-8.44,8.44-8.44c4.654,0,8.44-3.785,8.44-8.44
		l-0.141-32.597c0-4.637,1.256-9.101,3.569-12.976c-2.314-3.872-3.569-8.327-3.569-12.942V84.396c0-4.654-3.785-8.44-8.44-8.44
		c-4.662,0-8.44-3.779-8.44-8.44s3.778-8.44,8.44-8.44c13.96,0,25.319,11.357,25.319,25.319v32.633c0,2.488,1.112,4.847,3.051,6.469
		c1.915,1.604,3.022,3.973,3.022,6.471c0,2.498-1.106,4.868-3.022,6.471c-1.939,1.623-3.051,3.981-3.051,6.469l0.141,32.597
		C306.332,189.504,294.974,200.862,281.014,200.862z"/>
	<path style="fill:#78E3EC;" d="M123.78,452.923c-4.662,0-8.44-3.779-8.44-8.44V241.934c0-4.661,3.778-8.44,8.44-8.44
		c4.662,0,8.44,3.779,8.44,8.44v202.549C132.22,449.144,128.442,452.923,123.78,452.923z"/>
</g>
</svg>